# xmcd
#
# Track frame offsets: 
#        150
#        19263
#        38563
#        57602
#        80845
#        95607
#        112462
#        125916
#        138540
#        154818
#        177042
#        193344
#        203570
#        221720
#        236861
#        252141
#        266008
#        282243
#
# Disc length: 4007 seconds
#
# Revision: 2
# Processed by: cddbd v1.5.2PL0 Copyright (c) Steve Scherf et al.
# Submitted via: ExactAudioCopy v0.99pb5
#
DISCID=200fa512
DTITLE=Universe - Zlote przeboje
DYEAR=1900
DGENRE=Pop
TTITLE0=Daj mi wreszcie swiety spokoj
TTITLE1=Nie wiem czy to milosc
TTITLE2=Mr. Lennon
TTITLE3=W perly zmienic deszcz
TTITLE4=Nie, nie
TTITLE5=Bo to taka piekna milosc
TTITLE6=Kocham wiec to, co jest
TTITLE7=Glupia zaba
TTITLE8=To byl maj
TTITLE9=Blues na wpol do piatej rano
TTITLE10=Deszczowa nieznajoma w parku
TTITLE11=Badz moja iskra
TTITLE12=Wolanie przez cisze
TTITLE13=Latawce marzen
TTITLE14=Jestes tylko jedna
TTITLE15=Ty masz to, czego nie mam ja
TTITLE16=Tyle chcialem ci dac
TTITLE17=Tacy bylismy
EXTD=
EXTT0=
EXTT1=
EXTT2=
EXTT3=
EXTT4=
EXTT5=
EXTT6=
EXTT7=
EXTT8=
EXTT9=
EXTT10=
EXTT11=
EXTT12=
EXTT13=
EXTT14=
EXTT15=
EXTT16=
EXTT17=
PLAYORDER=
